<?xml version="1.0" encoding="UTF-8" standalone="no"?>
<svg
   xmlns:dc="http://purl.org/dc/elements/1.1/"   xmlns:cc="http://creativecommons.org/ns#"   xmlns:rdf="http://www.w3.org/1999/02/22-rdf-syntax-ns#"
   xmlns:svg="http://www.w3.org/2000/svg"   xmlns="http://www.w3.org/2000/svg"   viewBox="0 0 640 232"   height="232"
   width="640"   xml:space="preserve"   id="svg2"   version="1.1">
    <metadata     id="metadata8"><rdf:RDF><cc:Work
         rdf:about=""><dc:format>image/svg+xml</dc:format><dc:type
           rdf:resource="http://purl.org/dc/dcmitype/StillImage" /></cc:Work></rdf:RDF></metadata><defs
     id="defs6" />
    <g
     transform="matrix(1.3333333,0,0,-1.3333333,0,232)"
     id="g10">
    <g transform="scale(0.1)" id="g12">
        <!--<path id="path14"
         style="fill:#3c3c3a;fill-opacity:1;fill-rule:nonzero;stroke:none"
         d="m 0,39.3438 c 7.74219,-1.0665 20.0117,-2.1329 36.0156,-2.1329 29.3438,0 49.6211,5.336 62.1602,16.8047 9.0702,8.8047 15.2032,20.543 15.2032,36.0157 0,26.6757 -20.0079,40.8167 -37.0782,45.0857 v 0.531 c 18.9414,6.938 30.4102,22.141 30.4102,39.481 0,14.141 -5.602,24.809 -14.9415,31.746 -11.2031,9.07 -26.1445,13.074 -49.3515,13.074 -16.2735,0 -32.2774,-1.601 -42.418,-3.738 z M 23.2109,200.473 c 3.7344,0.8 9.8711,1.601 20.5391,1.601 23.4766,0 39.4844,-8.269 39.4844,-29.347 0,-17.336 -14.4063,-30.141 -38.9453,-30.141 H 23.2109 Z m 0,-75.493 H 42.418 c 25.3437,0 46.4179,-10.14 46.4179,-34.6831 0,-26.1446 -22.1406,-34.9453 -46.1484,-34.9453 -8.2695,0 -14.9414,0.2656 -19.4766,1.0664 z m 271.0431,17.336 h -69.895 v 56.821 h 73.895 v 19.476 H 201.145 V 38.8125 h 101.109 v 19.4727 h -77.895 v 64.8238 h 69.895 z M 427.367,38.8125 h 23.477 V 198.871 h 54.957 v 19.742 H 372.68 v -19.742 h 54.687 z m 199.278,0 h 23.476 V 198.871 h 54.957 v 19.742 H 571.961 v -19.742 h 54.684 z M 874.746,142.316 h -69.898 v 56.821 h 73.898 v 19.476 H 781.637 V 38.8125 h 101.109 v 19.4727 h -77.898 v 64.8238 h 69.898 z M 969.445,38.8125 h 23.211 v 77.8945 h 21.874 c 21.08,-0.801 30.68,-10.137 36.01,-34.9453 5.07,-22.4101 9.07,-37.8828 12.01,-42.9492 h 24.01 c -3.74,6.9336 -8.01,24.2734 -13.87,49.3516 -4.27,18.6719 -12.54,31.4769 -26.42,36.2769 v 0.805 c 18.94,6.399 33.89,22.141 33.89,45.883 0,13.871 -5.07,26.141 -14.14,34.148 -11.21,10.137 -27.22,14.672 -52.02,14.672 -16.012,0 -32.816,-1.336 -44.555,-3.738 z m 23.211,161.1255 c 3.731,1.07 11.734,2.136 22.944,2.136 24.54,-0.269 41.35,-10.406 41.35,-33.613 0,-20.543 -15.74,-34.148 -40.55,-34.148 H 992.656 Z M 1277.57,38.8125 h 23.47 V 198.871 H 1356 v 19.742 h -133.12 v -19.742 h 54.69 z m 220.61,182.7345 c -48.01,0 -83.49,-37.348 -83.49,-94.438 0,-54.4176 33.34,-91.2301 80.83,-91.2301 45.88,0 83.5,32.8086 83.5,94.6991 0,53.356 -31.75,90.969 -80.84,90.969 z m -1.06,-18.938 c 38.68,0 57.36,-37.351 57.36,-73.097 0,-40.8128 -20.81,-74.6956 -57.63,-74.6956 -36.55,0 -57.35,34.4141 -57.35,72.8286 0,39.484 19.2,74.964 57.62,74.964 z m 241.42,18.938 c -48.01,0 -83.49,-37.348 -83.49,-94.438 0,-54.4176 33.34,-91.2301 80.83,-91.2301 45.88,0 83.5,32.8086 83.5,94.6991 0,53.356 -31.75,90.969 -80.84,90.969 z m -1.06,-18.938 c 38.68,0 57.36,-37.351 57.36,-73.097 0,-40.8128 -20.82,-74.6956 -57.63,-74.6956 -36.55,0 -57.35,34.4141 -57.35,72.8286 0,39.484 19.2,74.964 57.62,74.964 z m 168.6,-163.7965 h 100.04 v 19.4727 h -76.83 V 218.613 h -23.21 z m 173.4,8.8047 c 9.6,-6.4063 28.54,-11.4727 45.88,-11.4727 42.42,0 62.96,24.0078 62.96,51.75 0,26.4105 -15.47,41.0825 -45.88,52.8205 -24.81,9.605 -35.75,17.875 -35.75,34.68 0,12.273 9.34,26.945 33.88,26.945 16.27,0 28.28,-5.336 34.14,-8.535 l 6.41,18.941 c -8.01,4.535 -21.35,8.801 -39.75,8.801 -34.95,0 -58.16,-20.805 -58.16,-48.82 0,-25.34 18.14,-40.547 47.49,-50.95 24.27,-9.339 33.88,-18.941 33.88,-35.7497 0,-18.1367 -13.88,-30.6757 -37.62,-30.6757 -16,0 -31.21,5.3359 -41.61,11.7382 z M 2362.25,7.59766 c 7.47,12.53904 19.21,42.15234 25.35,64.82814 l -26.15,-2.668 c -2.93,-19.4765 -10.13,-48.0195 -16,-63.76171 z m 195.81,31.74614 c 7.74,-1.0665 20.01,-2.1329 36.02,-2.1329 29.34,0 49.62,5.336 62.15,16.8047 9.07,8.8047 15.21,20.543 15.21,36.0157 0,26.6757 -20.01,40.8167 -37.08,45.0857 v 0.531 c 18.94,6.938 30.41,22.141 30.41,39.481 0,14.141 -5.6,24.809 -14.94,31.746 -11.2,9.07 -26.14,13.074 -49.35,13.074 -16.27,0 -32.28,-1.601 -42.42,-3.738 z m 23.21,161.1292 c 3.74,0.8 9.87,1.601 20.54,1.601 23.48,0 39.49,-8.269 39.49,-29.347 0,-17.336 -14.41,-30.141 -38.95,-30.141 h -21.08 z m 0,-75.493 h 19.21 c 25.34,0 46.42,-10.14 46.42,-34.6831 0,-26.1446 -22.14,-34.9453 -46.15,-34.9453 -8.27,0 -14.94,0.2656 -19.48,1.0664 z m 271.04,17.336 h -69.89 v 56.821 h 73.89 v 19.476 h -97.1 V 38.8125 h 101.11 v 19.4727 h -77.9 v 64.8238 h 69.89 z M 2985.43,38.8125 h 23.48 V 198.871 h 54.95 v 19.742 h -133.12 v -19.742 h 54.69 z m 199.28,0 h 23.47 V 198.871 h 54.96 v 19.742 h -133.12 v -19.742 h 54.69 z M 3432.8,142.316 h -69.89 v 56.821 h 73.89 v 19.476 h -97.1 V 38.8125 h 101.1 v 19.4727 h -77.89 v 64.8238 h 69.89 z m 94.71,-103.5035 h 23.2 v 77.8945 h 21.88 c 21.08,-0.801 30.68,-10.137 36.02,-34.9453 5.06,-22.4101 9.07,-37.8828 12,-42.9492 h 24.01 c -3.74,6.9336 -8.01,24.2734 -13.87,49.3516 -4.27,18.6719 -12.54,31.4769 -26.41,36.2769 v 0.805 c 18.94,6.399 33.87,22.141 33.87,45.883 0,13.871 -5.06,26.141 -14.13,34.148 -11.2,10.137 -27.21,14.672 -52.02,14.672 -16.01,0 -32.81,-1.336 -44.55,-3.738 z m 23.2,161.1255 c 3.74,1.07 11.74,2.136 22.95,2.136 24.54,-0.269 41.35,-10.406 41.35,-33.613 0,-20.543 -15.74,-34.148 -40.55,-34.148 h -23.75 z M 3933.26,63.0859 c -9.33,-4.5351 -23.74,-7.4687 -37.88,-7.4687 -43.75,0 -69.09,28.2773 -69.09,72.2968 0,47.215 28.01,74.16 70.16,74.16 14.94,0 27.48,-3.203 36.28,-7.472 l 5.6,18.941 c -6.13,3.203 -20.27,8.004 -42.68,8.004 -55.76,0 -93.9,-38.145 -93.9,-94.438 0,-58.9527 38.14,-90.9645 88.83,-90.9645 21.88,0 38.95,4.2696 47.49,8.5352 z m 157.66,158.4611 c -48.02,0 -83.5,-37.348 -83.5,-94.438 0,-54.4176 33.35,-91.2301 80.83,-91.2301 45.89,0 83.51,32.8086 83.51,94.6991 0,53.356 -31.75,90.969 -80.84,90.969 z m -1.06,-18.938 c 38.68,0 57.35,-37.351 57.35,-73.097 0,-40.8128 -20.8,-74.6956 -57.62,-74.6956 -36.55,0 -57.36,34.4141 -57.36,72.8286 0,39.484 19.21,74.964 57.63,74.964 z m 241.42,18.938 c -48.01,0 -83.49,-37.348 -83.49,-94.438 0,-54.4176 33.34,-91.2301 80.82,-91.2301 45.89,0 83.5,32.8086 83.5,94.6991 0,53.356 -31.74,90.969 -80.83,90.969 z m -1.07,-18.938 c 38.69,0 57.36,-37.351 57.36,-73.097 0,-40.8128 -20.81,-74.6956 -57.62,-74.6956 -36.55,0 -57.36,34.4141 -57.36,72.8286 0,39.484 19.21,74.964 57.62,74.964 z m 168.6,-163.7965 h 23.21 v 68.5585 l 17.08,19.738 59.22,-88.2965 h 27.48 l -70.16,103.5035 65.09,76.297 h -28.81 l -54.96,-67.492 c -4.53,-5.867 -9.33,-12.273 -14.14,-19.207 h -0.8 v 86.699 h -23.21 z m 192.08,8.8047 c 9.6,-6.4063 28.54,-11.4727 45.88,-11.4727 42.42,0 62.96,24.0078 62.96,51.75 0,26.4105 -15.47,41.0825 -45.88,52.8205 -24.81,9.605 -35.75,17.875 -35.75,34.68 0,12.273 9.34,26.945 33.88,26.945 16.28,0 28.28,-5.336 34.15,-8.535 l 6.4,18.941 c -8,4.535 -21.34,8.801 -39.75,8.801 -34.95,0 -58.15,-20.805 -58.15,-48.82 0,-25.34 18.14,-40.547 47.48,-50.95 24.28,-9.339 33.88,-18.941 33.88,-35.7497 0,-18.1367 -13.87,-30.6757 -37.61,-30.6757 -16.01,0 -31.22,5.3359 -41.62,11.7382 l -5.87,-19.4726" />-->
        <path
         id="path16"
         style="fill:#FABE3C;fill-opacity:1;fill-rule:nonzero;stroke:none"
         d="m 3138.46,1272.46 c 0,50.98 41.33,92.31 92.31,92.31 50.98,0 92.3,-41.33 92.3,-92.31 v -196.75 l 409.5,272.99 c 17.07,11.68 37.5,17.24 58.13,15.86 25.82,-1.68 49.76,-14.16 65.92,-34.35 13.26,-16.48 20.5,-37.43 20.3,-58.54 V 534.008 c 0,-50.981 -41.33,-92.309 -92.31,-92.309 -50.98,0 -92.3,41.328 -92.3,92.309 V 1099.98 L 3323.07,853.832 V 534.008 c 0,-50.981 -41.32,-92.309 -92.3,-92.309 -50.98,0 -92.31,41.328 -92.31,92.309 0,246.148 0,492.302 0,738.452" />
        <path
         id="path18"
         style="fill:#3c3c3a;fill-opacity:1;fill-rule:nonzero;stroke:none"
         d="m 0.00390625,1641.69 c 0,50.98 41.32809375,92.31 92.30859375,92.31 50.9805,0 92.3085,-41.33 92.3085,-92.31 V 534.008 c 0,-50.981 -41.328,-92.309 -92.3085,-92.309 -50.9805,0 -92.30859375,41.328 -92.30859375,92.309 V 1641.69" />
        <path
         id="path20"
         style="fill:#3c3c3a;fill-opacity:1;fill-rule:nonzero;stroke:none"
         d="m 201.258,1034.95 c -3.09,4.42 -5.766,9.08 -8.008,13.91 -5.422,11.59 -8.23,23.9 -8.59,36.18 l -0.008,0.21 c -0.011,0.55 -0.027,1.11 -0.031,1.66 l -0.004,0.94 0.004,0.94 0.031,1.66 0.008,0.21 c 0.36,12.27 3.172,24.59 8.59,36.17 2.242,4.84 4.918,9.49 8.008,13.92 l 368.097,552.14 c 28.278,42.42 85.59,53.88 128.008,25.6 42.414,-28.28 53.875,-85.58 25.602,-128 L 387.863,1087.85 722.965,585.207 c 28.273,-42.414 16.812,-99.727 -25.602,-128.004 -42.418,-28.277 -99.73,-16.812 -128.008,25.602 L 201.258,1034.95" />
        <path
         id="path22"
         style="fill:#3c3c3a;fill-opacity:1;fill-rule:nonzero;stroke:none"
         d="m 923.078,1272.46 c 0,50.98 41.328,92.31 92.312,92.31 50.98,0 92.31,-41.33 92.31,-92.31 V 534.008 c 0,-50.981 -41.33,-92.309 -92.31,-92.309 -50.984,0 -92.312,41.328 -92.312,92.309 z M 1015.39,1734 c 50.98,0 92.31,-41.33 92.31,-92.31 0,-50.98 -41.33,-92.31 -92.31,-92.31 -50.984,0 -92.312,41.33 -92.312,92.31 0,50.98 41.328,92.31 92.312,92.31" />
        <path
         id="path24"
         style="fill:#FABE3C;fill-opacity:1;fill-rule:nonzero;stroke:none"
         d="m 2769.23,1272.46 c 0,50.98 41.33,92.31 92.31,92.31 50.98,0 92.3,-41.33 92.3,-92.31 V 534.008 c 0,-50.981 -41.32,-92.309 -92.3,-92.309 -50.98,0 -92.31,41.328 -92.31,92.309 z m 92.31,461.54 c 50.98,0 92.3,-41.33 92.3,-92.31 0,-50.98 -41.32,-92.31 -92.3,-92.31 -50.98,0 -92.31,41.33 -92.31,92.31 0,50.98 41.33,92.31 92.31,92.31" />
        <path
         id="path26"
         style="fill:#3c3c3a;fill-opacity:1;fill-rule:nonzero;stroke:none"
         d="m 1292.31,1641.69 c 0,50.98 41.33,92.31 92.31,92.31 50.98,0 92.31,-41.33 92.31,-92.31 v -276.92 h 276.92 c 50.98,0 92.31,-41.33 92.31,-92.31 0,-50.98 -41.33,-92.31 -92.31,-92.31 H 1476.93 V 626.316 h 369.22 c 50.98,0 92.31,-41.328 92.31,-92.308 0,-50.977 -41.33,-92.305 -92.31,-92.305 l -461.53,-0.004 c -50.98,0 -92.32,41.332 -92.32,92.309 l 0.01,738.452 v 369.23" />
        <path
         id="path28"
         style="fill:#FABE3C;fill-opacity:1;fill-rule:nonzero;stroke:none"
         d="m 4153.84,1180.15 c -50.98,0 -92.3,41.33 -92.3,92.31 0,50.98 41.32,92.31 92.3,92.31 h 553.85 c 50.98,0 92.31,-41.33 92.31,-92.31 0,-50.98 -41.33,-92.31 -92.31,-92.31 z m 0,-738.451 c -50.98,0 -92.3,41.328 -92.3,92.309 0,50.976 41.32,92.305 92.3,92.305 h 553.85 c 50.98,0 92.31,-41.329 92.31,-92.305 0,-50.981 -41.33,-92.309 -92.31,-92.309 z m 0,369.227 c -50.98,0 -92.3,41.328 -92.3,92.308 0,50.977 41.32,92.305 92.3,92.305 h 553.85 c 50.98,0 92.31,-41.328 92.31,-92.305 0,-50.98 -41.33,-92.308 -92.31,-92.308 h -553.85" />
        <path
         id="path30"
         style="fill:#FABE3C;fill-opacity:1;fill-rule:nonzero;stroke:none"
         d="m 2030.77,1641.69 c 0,50.98 41.33,92.31 92.31,92.31 50.97,0 92.31,-41.33 92.31,-92.31 V 626.316 h 369.22 c 50.98,0 92.31,-41.328 92.31,-92.308 0,-50.977 -41.33,-92.305 -92.31,-92.305 h -461.23 l -0.3,-0.004 c -13.54,0 -26.41,2.918 -37.99,8.156 -0.68,0.313 -1.36,0.622 -2.03,0.946 l -0.01,0.008 c -0.67,0.32 -1.33,0.648 -2,0.988 v 0.004 c -0.66,0.34 -1.32,0.683 -1.97,1.039 l -0.01,0.004 c -0.65,0.355 -1.3,0.711 -1.94,1.086 v 0 c -0.65,0.371 -1.28,0.75 -1.92,1.136 v 0 c -0.64,0.383 -1.26,0.774 -1.88,1.176 h -0.01 c -0.62,0.403 -1.24,0.809 -1.85,1.219 l -0.01,0.008 c -0.61,0.41 -1.21,0.832 -1.82,1.261 v 0.004 c -0.6,0.426 -1.2,0.86 -1.79,1.301 l -0.01,0.004 c -0.59,0.441 -1.17,0.891 -1.75,1.348 v 0.004 c -0.58,0.453 -1.16,0.918 -1.73,1.386 v 0.008 c -0.57,0.465 -1.13,0.942 -1.69,1.426 v 0 c -0.56,0.484 -1.11,0.969 -1.66,1.465 v 0.008 c -0.55,0.492 -1.08,0.996 -1.62,1.504 v 0.003 c -0.54,0.512 -1.06,1.024 -1.58,1.543 l -0.01,0.004 c -0.52,0.524 -1.03,1.051 -1.54,1.582 v 0.004 c -0.51,0.531 -1.01,1.071 -1.51,1.617 v 0.004 c -0.5,0.543 -0.98,1.098 -1.47,1.653 v 0.004 c -0.48,0.558 -0.96,1.117 -1.43,1.687 v 0.004 c -0.47,0.57 -0.94,1.145 -1.39,1.727 l -0.01,0.003 c -0.45,0.579 -0.9,1.165 -1.34,1.754 v 0 c -0.45,0.594 -0.88,1.192 -1.31,1.793 v 0.008 c -0.43,0.598 -0.85,1.207 -1.26,1.817 l -0.01,0.007 c -0.41,0.614 -0.82,1.227 -1.22,1.852 v 0.004 c -0.4,0.621 -0.79,1.25 -1.17,1.883 l -0.01,0.004 c -0.38,0.632 -0.76,1.273 -1.13,1.914 v 0.004 c -0.37,0.644 -0.73,1.289 -1.09,1.945 v 0.004 c -0.36,0.652 -0.7,1.312 -1.04,1.972 l -0.01,0.004 c -0.34,0.664 -0.66,1.328 -0.99,2 v 0 c -0.32,0.672 -0.64,1.352 -0.94,2.028 -5.25,11.593 -8.16,24.449 -8.16,37.992 V 1641.69" />
</g>
</g>
</svg>